<svg width="20" height="21" viewBox="0 0 20 21" fill="none" xmlns="http://www.w3.org/2000/svg">
<path d="M17.8571 20.5H2.14286C0.959375 20.5 0 19.5406 0 18.3571V2.64286C0 1.45938 0.959375 0.5 2.14286 0.5H17.8571C19.0406 0.5 20 1.45938 20 2.64286V18.3571C20 19.5406 19.0406 20.5 17.8571 20.5ZM8.71937 16.1224L16.9337 7.90808C17.2126 7.62915 17.2126 7.17688 16.9337 6.89795L15.9235 5.88781C15.6446 5.60888 15.1923 5.60884 14.9133 5.88781L8.21429 12.5868L5.08665 9.4592C4.80772 9.18027 4.35545 9.18027 4.07647 9.4592L3.06634 10.4693C2.78741 10.7483 2.78741 11.2005 3.06634 11.4795L7.7092 16.1223C7.98817 16.4013 8.4404 16.4013 8.71937 16.1224Z" fill="#9B51E0"/>
</svg>
