<svg width="19" height="21" viewBox="0 0 19 21" fill="none" xmlns="http://www.w3.org/2000/svg">
<path d="M17.3794 1.75001H12.6919L12.3247 1.01954C12.2469 0.863372 12.1271 0.732008 11.9787 0.640225C11.8304 0.548442 11.6593 0.499882 11.4849 0.500007H7.02002C6.84595 0.499338 6.67521 0.547717 6.52736 0.639602C6.37952 0.731487 6.26055 0.863161 6.18408 1.01954L5.81689 1.75001H1.12939C0.963634 1.75001 0.804663 1.81585 0.687453 1.93306C0.570243 2.05027 0.504395 2.20925 0.504395 2.37501L0.504395 3.62501C0.504395 3.79077 0.570243 3.94974 0.687453 4.06695C0.804663 4.18416 0.963634 4.25001 1.12939 4.25001H17.3794C17.5452 4.25001 17.7041 4.18416 17.8213 4.06695C17.9385 3.94974 18.0044 3.79077 18.0044 3.62501V2.37501C18.0044 2.20925 17.9385 2.05027 17.8213 1.93306C17.7041 1.81585 17.5452 1.75001 17.3794 1.75001ZM2.58252 18.7422C2.61233 19.2182 2.82243 19.665 3.17004 19.9915C3.51766 20.3181 3.97666 20.4999 4.45361 20.5H14.0552C14.5321 20.4999 14.9911 20.3181 15.3387 19.9915C15.6864 19.665 15.8965 19.2182 15.9263 18.7422L16.7544 5.5H1.75439L2.58252 18.7422Z" fill="#9B51E0"/>
</svg>
