<svg width="23" height="21" viewBox="0 0 23 21" fill="none" xmlns="http://www.w3.org/2000/svg">
<path d="M15.7296 3.74673L19.2538 7.27085C19.4022 7.41932 19.4022 7.66155 19.2538 7.81002L10.7208 16.3429L7.09514 16.7454C6.61067 16.8001 6.20043 16.3898 6.25513 15.9054L6.65755 12.2796L15.1905 3.74673C15.3389 3.59826 15.5812 3.59826 15.7296 3.74673ZM22.059 2.85202L20.1524 0.945399C19.5585 0.351533 18.5935 0.351533 17.9957 0.945399L16.6126 2.32848C16.4642 2.47695 16.4642 2.71918 16.6126 2.86765L20.1367 6.39178C20.2852 6.54024 20.5274 6.54024 20.6759 6.39178L22.059 5.00869C22.6529 4.41092 22.6529 3.44589 22.059 2.85202ZM15.0029 14.0222V17.9995H2.50049V5.49707H11.4788C11.6038 5.49707 11.721 5.44628 11.8109 5.36032L13.3737 3.79752C13.6706 3.50059 13.4597 2.99658 13.0416 2.99658H1.87537C0.840008 2.99658 0 3.83659 0 4.87195V18.6246C0 19.66 0.840008 20.5 1.87537 20.5H15.6281C16.6634 20.5 17.5034 19.66 17.5034 18.6246V12.4594C17.5034 12.0413 16.9994 11.8342 16.7025 12.1273L15.1397 13.6901C15.0537 13.7799 15.0029 13.8971 15.0029 14.0222Z" fill="#9B51E0"/>
</svg>
