<svg width="50" height="29" viewBox="0 0 50 29" fill="none" xmlns="http://www.w3.org/2000/svg">
<path d="M37.2677 8.94177H13.572C13.2017 8.94177 12.9014 8.6415 12.9014 8.27114V6.25924C12.9014 4.7777 14.1024 3.57671 15.5839 3.57671H18.2665V0.670633C18.2665 0.300276 18.5667 0 18.9371 0H21.1725C21.5429 0 21.8432 0.300276 21.8432 0.670633V3.57671H28.9966V0.670633C28.9966 0.300276 29.2969 0 29.6672 0H31.9027C32.273 0 32.5733 0.300276 32.5733 0.670633V3.57671H35.2558C36.7374 3.57671 37.9384 4.7777 37.9384 6.25924V8.27114C37.9384 8.6415 37.6381 8.94177 37.2677 8.94177ZM13.572 10.7301H37.2677C37.6381 10.7301 37.9384 11.0304 37.9384 11.4008V25.9311C37.9384 27.4127 36.7374 28.6137 35.2558 28.6137H15.5839C14.1024 28.6137 12.9014 27.4127 12.9014 25.9311V11.4008C12.9014 11.0304 13.2017 10.7301 13.572 10.7301ZM32.1986 16.0922L30.6244 14.5052C30.3636 14.2422 29.9389 14.2405 29.676 14.5014L23.75 20.3797L21.1804 17.7893C20.9195 17.5263 20.4949 17.5246 20.2319 17.7855L18.6449 19.3598C18.382 19.6206 18.3802 20.0452 18.6411 20.3082L23.2574 24.9617C23.5182 25.2247 23.9428 25.2264 24.2057 24.9655L32.1948 17.0406C32.4578 16.7798 32.4595 16.3552 32.1986 16.0922Z" fill="#9B51E0"/>
<path d="M5.38395 18.5874C5.38395 18.3952 5.39997 18.2509 5.43202 18.1548C5.48009 18.0426 5.58424 17.9866 5.74448 17.9866C5.88869 17.9866 6.04893 18.0186 6.22519 18.0827C6.41747 18.1468 6.60175 18.2189 6.77801 18.299C7.22667 18.4913 7.62726 18.6355 7.97978 18.7317C8.34832 18.8278 8.805 18.8759 9.3498 18.8759C11.3367 18.8759 12.8269 18.4032 13.8204 17.4578C14.8299 16.5124 15.3346 15.2786 15.3346 13.7563C15.3346 12.3943 14.9501 11.2005 14.1809 10.175C13.4118 9.13348 12.4344 8.31628 11.2486 7.7234C10.0789 7.13053 8.88512 6.77801 7.66732 6.66584L9.03734 16.8328C9.03734 17.1053 8.99728 17.3296 8.91716 17.5058C8.85307 17.6821 8.69283 17.7702 8.43645 17.7702C8.37236 17.8023 8.25218 17.3696 8.07592 16.4723C7.89966 15.575 7.65931 14.253 7.35486 12.5065C7.00234 10.4715 6.72994 8.96523 6.53765 7.98779C6.34537 6.99432 6.19314 6.42549 6.08098 6.28127C4.75101 6.28127 3.66141 6.35338 2.81215 6.49759C1.9629 6.62578 1.31394 6.77801 0.865277 6.95427C0.416615 7.13053 0.232343 7.21866 0.312461 7.21866C0.232343 7.18661 0.17626 7.13854 0.144213 7.07444C0.112166 6.99432 0.0881301 6.88216 0.0721065 6.73795C0.0400591 6.59373 0.0160237 6.48958 0 6.42548C0 6.04092 0.344509 5.73647 1.03353 5.51214C1.72254 5.28781 2.44361 5.13558 3.19672 5.05546C3.96585 4.97534 4.47861 4.93529 4.73499 4.93529C6.44952 4.93529 8.23616 5.28781 10.0949 5.99285C11.9536 6.68186 13.516 7.69937 14.7818 9.04535C16.0477 10.3913 16.6806 11.9857 16.6806 13.8284C16.6806 15.2064 16.3361 16.3842 15.6471 17.3616C14.9581 18.323 14.0527 19.0521 12.9311 19.5489C11.8255 20.0456 10.6397 20.294 9.37384 20.294C8.34832 20.294 7.42696 20.1337 6.60976 19.8132C5.79255 19.4928 5.38395 19.0842 5.38395 18.5874Z" fill="#333333"/>
<path d="M24.0685 20.0536C23.1231 20.0536 22.2659 19.8453 21.4967 19.4287C20.7436 18.996 20.1507 18.4032 19.7181 17.6501C19.3015 16.8809 19.0932 16.0076 19.0932 15.0302C19.0932 13.4278 19.678 12.2341 20.8478 11.4489C22.0335 10.6637 23.4837 10.2712 25.1982 10.2712C25.9834 10.2712 26.7124 10.4634 27.3854 10.848C28.0744 11.2326 28.6273 11.7854 29.0439 12.5065C29.4605 13.2275 29.6688 14.0608 29.6688 15.0062C29.6688 16.0317 29.4044 16.929 28.8756 17.6981C28.3468 18.4512 27.6498 19.0361 26.7845 19.4527C25.9353 19.8533 25.03 20.0536 24.0685 20.0536ZM23.8041 18.6836C25.2943 18.6836 26.424 18.3471 27.1931 17.6741C27.9623 17.0011 28.3468 16.0156 28.3468 14.7177C28.3468 13.8364 28.0424 13.0753 27.4335 12.4344C26.8406 11.7934 26.0074 11.4729 24.9338 11.4729C24.2127 11.4729 23.4837 11.6091 22.7466 11.8815C22.0095 12.1539 21.4006 12.5625 20.9199 13.1073C20.4392 13.6522 20.1988 14.3091 20.1988 15.0783C20.1988 15.7192 20.3591 16.3201 20.6795 16.8809C21 17.4257 21.4326 17.8664 21.9774 18.2029C22.5383 18.5233 23.1472 18.6836 23.8041 18.6836Z" fill="#333333"/>
<path d="M40.6177 20.0296C40.4094 20.1097 40.2091 20.0616 40.0168 19.8854C39.8406 19.7091 39.7444 19.4607 39.7284 19.1403C39.6643 18.6756 39.5922 18.1067 39.5121 17.4337C39.448 16.7607 39.3999 16.264 39.3679 15.9435C39.3358 15.6231 39.2637 15.0062 39.1515 14.0928C39.0554 13.1634 38.9513 12.3622 38.8391 11.6893C38.807 11.4649 38.7029 11.0643 38.5266 10.4875C38.0619 8.83705 37.8296 7.64328 37.8296 6.9062C37.9418 6.74596 38.0539 6.66584 38.1661 6.66584C38.5827 6.66584 39.0153 7.49907 39.464 9.16553C39.9127 10.832 40.2892 12.7148 40.5937 14.8139C40.9141 16.8969 41.0744 18.323 41.0744 19.0922C41.0744 19.1242 41.0744 19.2284 41.0744 19.4046C41.0744 19.5649 41.0343 19.7011 40.9542 19.8132C40.8901 19.9254 40.778 19.9975 40.6177 20.0296Z" fill="#333333"/>
<path d="M47.1157 20.0296C46.9555 20.0616 46.8514 20.0776 46.8033 20.0776C46.3065 20.0776 45.962 19.7091 45.7698 18.972C45.5935 18.2349 45.5054 17.2014 45.5054 15.8714C45.5054 15.3266 45.5214 14.4774 45.5534 13.3237C45.5855 12.6186 45.6015 12.0898 45.6015 11.7373C43.6306 11.7373 42.6451 11.513 42.6451 11.0643C42.6451 10.9201 42.6612 10.808 42.6932 10.7278C42.7413 10.6477 42.8374 10.6077 42.9816 10.6077L45.6015 10.4394C45.5855 9.65425 45.5454 8.79699 45.4813 7.86761C45.4172 7.03438 45.3772 6.26525 45.3612 5.56021C45.3612 5.38395 45.4333 5.26377 45.5775 5.19968C45.7217 5.11956 45.8739 5.0795 46.0341 5.0795C46.2264 5.0795 46.3867 5.18365 46.5149 5.39196C46.643 5.58424 46.7071 5.78454 46.7071 5.99285L46.8754 10.3913L48.8703 10.4875C49.1748 10.4554 49.4312 10.5115 49.6395 10.6557C49.8638 10.7999 49.984 11.0403 50 11.3768C49.6635 11.521 49.295 11.6091 48.8944 11.6412C48.4938 11.6732 47.8208 11.6893 46.8754 11.6893C46.8754 13.1795 46.9475 15.6311 47.0917 19.0441C47.0917 19.3966 47.0917 19.645 47.0917 19.7892C47.1077 19.9174 47.1157 19.9975 47.1157 20.0296Z" fill="#333333"/>
</svg>
